<svg id="visual" viewBox="0 0 900 900" width="900" height="900" xmlns="http://www.w3.org/2000/svg" xmlns:xlink="http://www.w3.org/1999/xlink" version="1.1"><path d="M0 551L30 529.7C60 508.3 120 465.7 180 483.5C240 501.3 300 579.7 360 610C420 640.3 480 622.7 540 585.5C600 548.3 660 491.7 720 447.7C780 403.7 840 372.3 870 356.7L900 341L900 901L870 901C840 901 780 901 720 901C660 901 600 901 540 901C480 901 420 901 360 901C300 901 240 901 180 901C120 901 60 901 30 901L0 901Z" fill="#bbe0cf"></path><path d="M0 743L30 704.3C60 665.7 120 588.3 180 551.2C240 514 300 517 360 538.5C420 560 480 600 540 631.3C600 662.7 660 685.3 720 686.3C780 687.3 840 666.7 870 656.3L900 646L900 901L870 901C840 901 780 901 720 901C660 901 600 901 540 901C480 901 420 901 360 901C300 901 240 901 180 901C120 901 60 901 30 901L0 901Z" fill="#9ed2bb"></path></svg>