<svg xmlns="http://www.w3.org/2000/svg" xmlns:svgjs="http://svgjs.com/svgjs" xmlns:xlink="http://www.w3.org/1999/xlink" width="288" height="288"><svg xmlns="http://www.w3.org/2000/svg" width="288" height="288" viewBox="0 0 400 300"><path fill="#f8faf9" fill-rule="evenodd" d="M125.595 98.879 C 124.411 100.752,122.437 102.497,120.560 103.330 C 117.804 104.554,116.873 105.649,115.937 108.770 C 115.709 109.533,115.474 109.695,114.324 109.887 C 111.970 110.279,111.638 110.420,110.373 111.561 C 109.077 112.729,107.735 115.178,107.730 116.383 C 107.723 117.992,106.719 118.751,104.426 118.881 C 101.994 119.018,100.820 119.863,100.087 122.004 C 99.686 123.175,99.675 123.181,97.826 123.332 C 94.536 123.600,94.823 121.136,94.830 149.096 C 94.838 177.167,94.537 174.671,97.945 174.888 C 99.757 175.003,99.925 175.071,99.925 175.685 C 99.925 177.670,102.345 179.444,105.055 179.444 C 107.108 179.445,107.468 179.792,108.101 182.374 C 108.940 185.797,111.850 188.447,114.770 188.447 C 115.376 188.447,115.894 188.611,115.953 188.822 C 116.974 192.461,117.727 193.429,120.576 194.764 C 122.850 195.829,124.158 196.965,125.479 199.025 C 126.612 200.789,126.652 200.788,127.827 198.958 C 129.049 197.052,130.549 195.741,132.484 194.886 C 135.168 193.699,136.485 192.237,136.997 189.875 C 137.246 188.728,137.577 188.458,138.741 188.452 C 141.610 188.436,144.727 185.260,145.371 181.695 C 145.696 179.891,146.248 179.445,148.153 179.445 C 150.627 179.445,152.494 178.164,153.055 176.083 C 153.355 174.969,153.393 174.944,154.775 174.940 C 158.432 174.929,158.164 177.074,158.070 148.627 C 157.979 121.159,158.245 123.573,155.290 123.385 L 153.343 123.261 153.020 122.062 C 152.443 119.922,150.790 118.830,148.125 118.830 C 146.093 118.830,145.686 118.475,145.119 116.211 C 144.192 112.502,142.024 110.303,138.953 109.956 L 137.228 109.761 136.704 108.012 C 136.050 105.827,134.748 104.440,132.253 103.267 C 130.155 102.280,128.469 100.756,127.336 98.824 C 126.418 97.258,126.624 97.251,125.595 98.879 M273.128 101.800 C 271.920 103.919,270.626 105.088,268.117 106.329 C 265.522 107.612,263.766 109.594,263.766 111.239 C 263.766 111.970,263.203 112.528,262.465 112.528 C 259.269 112.528,255.364 116.574,255.364 119.887 C 255.364 121.001,254.447 121.530,252.518 121.530 C 250.356 121.530,249.110 122.364,248.003 124.550 C 247.258 126.020,247.240 126.032,245.790 126.032 C 244.797 126.032,244.100 126.216,243.619 126.605 L 242.911 127.179 242.911 151.780 C 242.911 180.001,242.644 177.544,245.719 177.705 C 247.369 177.792,247.423 177.823,247.967 178.995 C 249.056 181.340,250.226 182.101,253.201 182.399 L 255.158 182.596 255.786 184.793 C 256.748 188.157,259.062 190.507,261.883 190.984 C 263.287 191.221,263.427 191.357,264.214 193.248 C 264.988 195.107,265.984 196.111,268.107 197.170 C 270.678 198.453,272.001 199.609,273.153 201.581 C 274.426 203.760,274.919 203.868,275.775 202.153 C 276.771 200.159,278.488 198.515,280.656 197.480 C 282.778 196.467,284.420 194.878,285.029 193.246 C 285.694 191.467,285.821 191.344,287.343 190.994 C 290.859 190.188,292.472 188.479,293.641 184.321 L 294.169 182.446 295.546 182.432 C 298.330 182.406,299.939 181.371,301.237 178.772 C 301.691 177.863,301.844 177.788,303.417 177.705 C 306.482 177.544,306.214 179.854,306.315 152.782 C 306.421 124.403,306.627 126.318,303.440 126.034 C 301.731 125.882,301.723 125.877,300.975 124.389 C 299.952 122.354,298.659 121.530,296.487 121.530 C 294.342 121.530,293.897 121.183,293.359 119.089 C 292.383 115.295,290.108 113.032,286.780 112.545 C 285.714 112.389,285.590 112.261,284.921 110.612 C 284.108 108.606,283.176 107.511,281.635 106.752 C 281.049 106.463,280.083 105.990,279.488 105.701 C 278.103 105.029,275.909 102.609,275.465 101.265 C 274.960 99.734,274.207 99.907,273.128 101.800 M275.246 103.721 C 277.034 105.835,277.533 106.214,280.677 107.841 C 282.666 108.871,283.394 109.821,283.966 112.139 L 284.321 113.576 286.083 113.821 C 288.061 114.097,289.793 115.053,290.751 116.399 C 291.405 117.318,291.692 118.034,292.263 120.180 C 292.802 122.202,293.182 122.482,295.729 122.731 C 298.355 122.988,299.622 123.861,299.956 125.642 C 300.187 126.875,300.802 127.232,302.696 127.232 C 305.044 127.232,304.876 125.341,304.876 151.838 C 304.876 178.537,305.080 176.444,302.476 176.444 C 300.712 176.444,300.075 176.786,300.075 177.733 C 300.075 179.586,298.192 180.945,295.624 180.945 C 293.553 180.945,292.758 181.597,292.386 183.601 C 291.704 187.271,288.862 189.947,285.644 189.947 C 284.698 189.947,284.333 190.429,284.021 192.092 C 283.710 193.748,282.357 195.136,279.837 196.381 C 277.782 197.396,275.169 199.698,275.169 200.492 C 275.169 201.097,274.256 200.675,273.619 199.775 C 272.658 198.417,271.494 197.396,270.157 196.739 C 266.336 194.862,265.864 194.366,265.124 191.450 C 264.822 190.262,264.673 190.088,263.898 190.020 C 260.212 189.698,257.601 187.459,256.991 184.096 C 256.542 181.620,255.797 180.956,253.460 180.950 C 250.929 180.943,249.062 179.515,249.062 177.584 C 249.062 176.786,248.335 176.444,246.638 176.444 C 244.032 176.444,244.230 178.470,244.231 151.837 C 244.231 125.315,244.052 127.232,246.527 127.232 C 248.070 127.232,249.062 126.742,249.062 125.980 C 249.062 124.189,250.999 122.731,253.379 122.731 C 255.658 122.731,256.214 122.180,256.865 119.277 C 257.544 116.246,260.434 113.728,263.234 113.728 C 263.902 113.728,264.426 113.571,264.483 113.353 C 265.400 109.851,266.181 108.811,268.867 107.509 C 270.935 106.507,273.968 103.943,273.968 103.198 C 273.968 102.680,274.575 102.929,275.246 103.721 M112.408 137.013 C 113.217 137.442,114.014 137.896,114.179 138.022 C 114.344 138.149,115.491 138.794,116.729 139.456 C 121.368 141.938,123.521 143.278,124.893 144.539 C 126.612 146.118,126.537 146.116,127.985 144.633 C 128.631 143.971,129.637 143.179,130.221 142.873 C 130.805 142.567,131.755 142.050,132.333 141.725 C 132.911 141.400,134.194 140.685,135.184 140.137 C 136.174 139.589,137.488 138.824,138.104 138.437 C 138.719 138.051,139.296 137.734,139.385 137.734 C 139.474 137.734,140.082 137.397,140.735 136.984 C 142.147 136.093,143.980 135.996,145.172 136.748 C 146.927 137.857,149.137 139.934,149.137 140.475 C 149.137 140.941,146.326 143.136,145.730 143.136 C 145.655 143.136,144.737 143.622,143.690 144.215 C 141.256 145.595,138.694 147.034,137.734 147.559 C 137.322 147.784,136.512 148.249,135.934 148.591 C 135.356 148.933,133.871 149.760,132.633 150.428 C 131.395 151.096,129.854 151.973,129.207 152.376 C 126.924 153.800,125.080 153.318,119.130 149.746 C 117.923 149.022,106.583 142.635,105.889 142.290 C 103.142 140.921,103.277 140.120,106.677 137.606 C 108.885 135.972,110.190 135.837,112.408 137.013 M107.997 138.018 C 106.238 139.182,105.136 140.369,105.495 140.711 C 105.650 140.858,106.249 141.239,106.827 141.558 C 108.887 142.695,111.494 144.143,112.528 144.726 C 113.106 145.051,114.051 145.578,114.629 145.897 C 115.206 146.215,116.084 146.715,116.579 147.007 C 117.074 147.299,118.290 147.988,119.280 148.537 C 120.270 149.086,121.553 149.803,122.131 150.130 C 124.470 151.455,126.003 152.138,126.639 152.138 C 127.216 152.138,131.302 150.199,131.733 149.721 C 131.862 149.578,134.028 148.350,139.460 145.342 C 140.600 144.711,142.081 143.884,144.336 142.618 C 144.749 142.386,145.625 141.901,146.283 141.540 C 146.941 141.180,147.521 140.664,147.573 140.394 C 147.674 139.870,144.701 137.553,143.543 137.252 C 142.868 137.077,141.715 137.651,134.134 141.942 C 132.896 142.642,131.515 143.408,131.066 143.644 C 130.617 143.879,129.497 144.806,128.577 145.704 C 126.542 147.691,126.726 147.688,124.661 145.761 C 123.732 144.895,122.344 143.836,121.576 143.407 C 120.808 142.979,118.425 141.637,116.279 140.424 C 109.442 136.562,109.965 136.714,107.997 138.018 M256.059 139.927 C 251.313 143.194,251.303 143.423,255.814 145.827 C 257.134 146.530,258.350 147.207,258.515 147.332 C 258.680 147.456,259.625 148.003,260.615 148.547 C 262.711 149.698,264.685 150.794,266.167 151.628 C 275.321 156.780,274.018 156.708,281.444 152.474 C 283.794 151.134,285.758 150.038,285.807 150.038 C 285.856 150.038,287.364 149.193,289.159 148.161 C 290.954 147.128,293.068 145.947,293.856 145.535 C 297.159 143.809,297.307 143.217,294.914 141.298 C 291.351 138.441,291.210 138.452,284.921 142.079 C 281.620 143.982,278.873 145.520,277.862 146.031 C 277.445 146.241,276.702 146.835,276.211 147.351 C 274.677 148.963,274.476 148.973,272.937 147.520 C 272.175 146.801,270.779 145.788,269.834 145.270 C 268.012 144.271,266.734 143.555,264.066 142.043 C 258.519 138.898,257.822 138.714,256.059 139.927 M107.727 144.786 C 109.898 146.024,111.712 147.037,111.758 147.037 C 111.804 147.037,113.015 147.712,114.449 148.537 C 115.883 149.362,117.159 150.038,117.283 150.038 C 117.408 150.038,117.667 150.195,117.860 150.388 C 118.213 150.741,122.126 152.953,125.049 154.452 C 126.812 155.357,126.570 155.410,130.233 153.316 C 131.140 152.797,132.626 151.960,133.533 151.456 C 134.441 150.952,135.656 150.269,136.234 149.938 C 136.812 149.607,137.869 149.020,138.584 148.632 C 139.299 148.245,141.142 147.187,142.680 146.282 C 144.218 145.377,145.548 144.636,145.635 144.636 C 145.722 144.636,146.612 144.149,147.612 143.553 C 150.374 141.908,151.118 142.624,149.435 145.306 C 148.509 146.779,147.630 147.441,144.336 149.143 C 143.263 149.698,142.183 150.308,141.935 150.500 C 141.688 150.692,140.473 151.392,139.235 152.055 C 134.686 154.493,130.619 156.857,130.420 157.179 C 130.342 157.306,131.449 158.070,132.881 158.877 C 137.559 161.513,137.921 161.920,136.932 163.428 C 136.251 164.468,135.518 164.284,131.844 162.151 C 125.939 158.722,127.441 158.615,119.701 163.016 C 117.406 164.321,116.973 164.378,116.141 163.484 C 114.776 162.019,115.155 161.627,120.930 158.532 C 123.129 157.353,123.092 157.192,120.259 155.636 C 119.478 155.207,117.790 154.260,116.508 153.533 C 113.397 151.768,111.950 150.960,107.427 148.458 C 105.027 147.131,104.530 146.703,103.592 145.154 C 101.631 141.913,102.545 141.832,107.727 144.786 M146.405 145.483 C 145.515 145.957,144.314 146.613,143.736 146.941 C 142.593 147.592,139.872 149.104,137.734 150.277 C 136.992 150.685,136.249 151.117,136.084 151.238 C 135.919 151.359,134.974 151.904,133.983 152.448 C 131.700 153.702,130.138 154.577,128.432 155.557 C 126.641 156.585,126.395 156.557,123.696 155.026 C 121.042 153.520,119.994 152.932,117.479 151.538 C 116.489 150.989,115.206 150.269,114.629 149.937 C 112.903 148.948,111.225 147.998,110.428 147.558 C 110.015 147.330,108.779 146.647,107.682 146.040 C 106.584 145.433,105.446 144.936,105.154 144.936 C 103.791 144.936,106.627 146.869,113.053 150.319 C 113.342 150.475,115.064 151.452,116.879 152.492 C 121.573 155.181,123.115 156.030,123.646 156.215 C 125.167 156.747,124.878 157.486,122.651 158.763 C 121.457 159.448,120.006 160.311,119.426 160.682 C 118.846 161.052,118.070 161.451,117.700 161.568 C 117.019 161.784,116.733 162.941,117.362 162.941 C 117.545 162.941,119.199 162.080,121.038 161.029 C 126.993 157.624,126.298 157.728,129.782 159.727 C 135.443 162.974,135.935 163.189,135.932 162.416 C 135.930 161.885,135.567 161.634,132.033 159.717 C 127.473 157.244,127.502 157.326,130.603 155.632 C 131.385 155.205,133.073 154.260,134.354 153.533 C 137.486 151.757,138.251 151.329,143.436 148.458 C 147.180 146.384,148.634 145.233,148.137 144.737 C 148.075 144.674,147.295 145.010,146.405 145.483 M251.381 146.116 C 251.178 146.893,252.865 149.410,254.014 150.042 C 255.809 151.031,257.804 152.149,260.165 153.488 C 261.490 154.240,263.214 155.211,263.995 155.647 C 269.414 158.664,270.667 159.396,270.811 159.628 C 271.007 159.947,270.187 160.631,268.462 161.587 C 263.885 164.123,263.382 164.689,264.554 165.983 C 265.183 166.678,265.969 166.561,267.617 165.527 C 268.222 165.147,269.527 164.393,270.518 163.851 C 271.508 163.310,272.821 162.590,273.437 162.252 L 274.555 161.638 276.137 162.495 C 277.007 162.966,278.860 164.006,280.254 164.806 C 283.548 166.696,283.988 166.799,284.622 165.833 C 285.430 164.599,285.087 164.168,281.770 162.260 C 277.619 159.872,277.553 159.773,279.445 158.810 C 280.146 158.452,281.395 157.771,282.221 157.296 C 283.046 156.821,285.409 155.483,287.472 154.324 C 289.535 153.165,291.763 151.910,292.423 151.536 C 293.083 151.163,294.124 150.594,294.736 150.273 C 295.987 149.618,297.674 147.298,297.674 146.235 C 297.674 145.372,297.226 145.355,295.891 146.169 C 295.323 146.515,293.837 147.345,292.590 148.012 C 291.343 148.680,290.109 149.408,289.849 149.632 C 289.588 149.855,289.279 150.038,289.160 150.038 C 289.042 150.038,287.365 150.937,285.433 152.037 C 277.166 156.744,275.112 157.839,274.555 157.839 C 274.049 157.839,272.612 157.086,265.566 153.126 C 264.989 152.802,263.706 152.087,262.716 151.538 C 260.119 150.098,259.307 149.635,257.526 148.579 C 256.652 148.061,255.883 147.637,255.816 147.637 C 255.749 147.637,254.911 147.165,253.954 146.587 C 251.953 145.381,251.591 145.315,251.381 146.116 " class="colorf8faf9 svgShape"/><path fill="#74bc9c" fill-rule="evenodd" d="M0.000 150.038 L 0.000 300.075 200.000 300.075 L 400.000 300.075 400.000 150.038 L 400.000 0.000 200.000 0.000 L 0.000 0.000 0.000 150.038 M127.336 98.824 C 128.469 100.756,130.155 102.280,132.253 103.267 C 134.748 104.440,136.050 105.827,136.704 108.012 L 137.228 109.761 138.953 109.956 C 142.024 110.303,144.192 112.502,145.119 116.211 C 145.686 118.475,146.093 118.830,148.125 118.830 C 150.790 118.830,152.443 119.922,153.020 122.062 L 153.343 123.261 155.290 123.385 C 158.245 123.573,157.979 121.159,158.070 148.627 C 158.164 177.074,158.432 174.929,154.775 174.940 C 153.393 174.944,153.355 174.969,153.055 176.083 C 152.494 178.164,150.627 179.445,148.153 179.445 C 146.248 179.445,145.696 179.891,145.371 181.695 C 144.727 185.260,141.610 188.436,138.741 188.452 C 137.577 188.458,137.246 188.728,136.997 189.875 C 136.485 192.237,135.168 193.699,132.484 194.886 C 130.549 195.741,129.049 197.052,127.827 198.958 C 126.652 200.788,126.612 200.789,125.479 199.025 C 124.158 196.965,122.850 195.829,120.576 194.764 C 117.727 193.429,116.974 192.461,115.953 188.822 C 115.894 188.611,115.376 188.447,114.770 188.447 C 111.850 188.447,108.940 185.797,108.101 182.374 C 107.468 179.792,107.108 179.445,105.055 179.444 C 102.345 179.444,99.925 177.670,99.925 175.685 C 99.925 175.071,99.757 175.003,97.945 174.888 C 94.537 174.671,94.838 177.167,94.830 149.096 C 94.823 121.136,94.536 123.600,97.826 123.332 C 99.675 123.181,99.686 123.175,100.087 122.004 C 100.820 119.863,101.994 119.018,104.426 118.881 C 106.719 118.751,107.723 117.992,107.730 116.383 C 107.735 115.178,109.077 112.729,110.373 111.561 C 111.638 110.420,111.970 110.279,114.324 109.887 C 115.474 109.695,115.709 109.533,115.937 108.770 C 116.873 105.649,117.804 104.554,120.560 103.330 C 122.437 102.497,124.411 100.752,125.595 98.879 C 126.624 97.251,126.418 97.258,127.336 98.824 M275.465 101.265 C 275.909 102.609,278.103 105.029,279.488 105.701 C 280.083 105.990,281.049 106.463,281.635 106.752 C 283.176 107.511,284.108 108.606,284.921 110.612 C 285.590 112.261,285.714 112.389,286.780 112.545 C 290.108 113.032,292.383 115.295,293.359 119.089 C 293.897 121.183,294.342 121.530,296.487 121.530 C 298.659 121.530,299.952 122.354,300.975 124.389 C 301.723 125.877,301.731 125.882,303.440 126.034 C 306.627 126.318,306.421 124.403,306.315 152.782 C 306.214 179.854,306.482 177.544,303.417 177.705 C 301.844 177.788,301.691 177.863,301.237 178.772 C 299.939 181.371,298.330 182.406,295.546 182.432 L 294.169 182.446 293.641 184.321 C 292.472 188.479,290.859 190.188,287.343 190.994 C 285.821 191.344,285.694 191.467,285.029 193.246 C 284.420 194.878,282.778 196.467,280.656 197.480 C 278.488 198.515,276.771 200.159,275.775 202.153 C 274.919 203.868,274.426 203.760,273.153 201.581 C 272.001 199.609,270.678 198.453,268.107 197.170 C 265.984 196.111,264.988 195.107,264.214 193.248 C 263.427 191.357,263.287 191.221,261.883 190.984 C 259.062 190.507,256.748 188.157,255.786 184.793 L 255.158 182.596 253.201 182.399 C 250.226 182.101,249.056 181.340,247.967 178.995 C 247.423 177.823,247.369 177.792,245.719 177.705 C 242.644 177.544,242.911 180.001,242.911 151.780 L 242.911 127.179 243.619 126.605 C 244.100 126.216,244.797 126.032,245.790 126.032 C 247.240 126.032,247.258 126.020,248.003 124.550 C 249.110 122.364,250.356 121.530,252.518 121.530 C 254.447 121.530,255.364 121.001,255.364 119.887 C 255.364 116.574,259.269 112.528,262.465 112.528 C 263.203 112.528,263.766 111.970,263.766 111.239 C 263.766 109.594,265.522 107.612,268.117 106.329 C 270.626 105.088,271.920 103.919,273.128 101.800 C 274.207 99.907,274.960 99.734,275.465 101.265 M273.968 103.198 C 273.968 103.943,270.935 106.507,268.867 107.509 C 266.181 108.811,265.400 109.851,264.483 113.353 C 264.426 113.571,263.902 113.728,263.234 113.728 C 260.434 113.728,257.544 116.246,256.865 119.277 C 256.214 122.180,255.658 122.731,253.379 122.731 C 250.999 122.731,249.062 124.189,249.062 125.980 C 249.062 126.742,248.070 127.232,246.527 127.232 C 244.052 127.232,244.231 125.315,244.231 151.837 C 244.230 178.470,244.032 176.444,246.638 176.444 C 248.335 176.444,249.062 176.786,249.062 177.584 C 249.062 179.515,250.929 180.943,253.460 180.950 C 255.797 180.956,256.542 181.620,256.991 184.096 C 257.601 187.459,260.212 189.698,263.898 190.020 C 264.673 190.088,264.822 190.262,265.124 191.450 C 265.864 194.366,266.336 194.862,270.157 196.739 C 271.494 197.396,272.658 198.417,273.619 199.775 C 274.256 200.675,275.169 201.097,275.169 200.492 C 275.169 199.698,277.782 197.396,279.837 196.381 C 282.357 195.136,283.710 193.748,284.021 192.092 C 284.333 190.429,284.698 189.947,285.644 189.947 C 288.862 189.947,291.704 187.271,292.386 183.601 C 292.758 181.597,293.553 180.945,295.624 180.945 C 298.192 180.945,300.075 179.586,300.075 177.733 C 300.075 176.786,300.712 176.444,302.476 176.444 C 305.080 176.444,304.876 178.537,304.876 151.838 C 304.876 125.341,305.044 127.232,302.696 127.232 C 300.802 127.232,300.187 126.875,299.956 125.642 C 299.622 123.861,298.355 122.988,295.729 122.731 C 293.182 122.482,292.802 122.202,292.263 120.180 C 291.692 118.034,291.405 117.318,290.751 116.399 C 289.793 115.053,288.061 114.097,286.083 113.821 L 284.321 113.576 283.966 112.139 C 283.394 109.821,282.666 108.871,280.677 107.841 C 277.533 106.214,277.034 105.835,275.246 103.721 C 274.575 102.929,273.968 102.680,273.968 103.198 M106.677 137.606 C 103.277 140.120,103.142 140.921,105.889 142.290 C 106.583 142.635,117.923 149.022,119.130 149.746 C 125.080 153.318,126.924 153.800,129.207 152.376 C 129.854 151.973,131.395 151.096,132.633 150.428 C 133.871 149.760,135.356 148.933,135.934 148.591 C 136.512 148.249,137.322 147.784,137.734 147.559 C 138.694 147.034,141.256 145.595,143.690 144.215 C 144.737 143.622,145.655 143.136,145.730 143.136 C 146.326 143.136,149.137 140.941,149.137 140.475 C 149.137 139.934,146.927 137.857,145.172 136.748 C 143.980 135.996,142.147 136.093,140.735 136.984 C 140.082 137.397,139.474 137.734,139.385 137.734 C 139.296 137.734,138.719 138.051,138.104 138.437 C 137.488 138.824,136.174 139.589,135.184 140.137 C 134.194 140.685,132.911 141.400,132.333 141.725 C 131.755 142.050,130.805 142.567,130.221 142.873 C 129.637 143.179,128.631 143.971,127.985 144.633 C 126.537 146.116,126.612 146.118,124.893 144.539 C 123.521 143.278,121.368 141.938,116.729 139.456 C 115.491 138.794,114.344 138.149,114.179 138.022 C 111.395 135.888,109.166 135.764,106.677 137.606 M111.339 137.677 C 111.911 137.976,114.134 139.212,116.279 140.424 C 118.425 141.637,120.808 142.979,121.576 143.407 C 122.344 143.836,123.732 144.895,124.661 145.761 C 126.726 147.688,126.542 147.691,128.577 145.704 C 129.497 144.806,130.617 143.879,131.066 143.644 C 131.515 143.408,132.896 142.642,134.134 141.942 C 141.715 137.651,142.868 137.077,143.543 137.252 C 144.701 137.553,147.674 139.870,147.573 140.394 C 147.521 140.664,146.941 141.180,146.283 141.540 C 145.625 141.901,144.749 142.386,144.336 142.618 C 142.081 143.884,140.600 144.711,139.460 145.342 C 134.028 148.350,131.862 149.578,131.733 149.721 C 131.302 150.199,127.216 152.138,126.639 152.138 C 126.003 152.138,124.470 151.455,122.131 150.130 C 121.553 149.803,120.270 149.086,119.280 148.537 C 118.290 147.988,117.074 147.299,116.579 147.007 C 116.084 146.715,115.206 146.215,114.629 145.897 C 114.051 145.578,113.106 145.051,112.528 144.726 C 111.494 144.143,108.887 142.695,106.827 141.558 C 105.213 140.668,105.143 140.519,105.939 139.672 C 108.023 137.453,109.715 136.828,111.339 137.677 M260.706 140.171 C 261.646 140.686,263.158 141.528,264.066 142.043 C 266.734 143.555,268.012 144.271,269.834 145.270 C 270.779 145.788,272.175 146.801,272.937 147.520 C 274.476 148.973,274.677 148.963,276.211 147.351 C 276.702 146.835,277.445 146.241,277.862 146.031 C 278.873 145.520,281.620 143.982,284.921 142.079 C 291.210 138.452,291.351 138.441,294.914 141.298 C 297.307 143.217,297.159 143.809,293.856 145.535 C 293.068 145.947,290.954 147.128,289.159 148.161 C 287.364 149.193,285.856 150.038,285.807 150.038 C 285.758 150.038,283.794 151.134,281.444 152.474 C 274.018 156.708,275.321 156.780,266.167 151.628 C 264.685 150.794,262.711 149.698,260.615 148.547 C 259.625 148.003,258.680 147.456,258.515 147.332 C 258.350 147.207,257.134 146.530,255.814 145.827 C 251.811 143.694,251.608 143.283,253.742 141.635 C 257.347 138.853,258.035 138.708,260.706 140.171 M102.799 143.032 C 102.535 143.721,104.358 146.646,105.476 147.328 C 105.971 147.630,106.849 148.139,107.427 148.458 C 111.950 150.960,113.397 151.768,116.508 153.533 C 117.790 154.260,119.478 155.207,120.259 155.636 C 123.092 157.192,123.129 157.353,120.930 158.532 C 115.155 161.627,114.776 162.019,116.141 163.484 C 116.973 164.378,117.406 164.321,119.701 163.016 C 127.441 158.615,125.939 158.722,131.844 162.151 C 135.518 164.284,136.251 164.468,136.932 163.428 C 137.921 161.920,137.559 161.513,132.881 158.877 C 131.449 158.070,130.342 157.306,130.420 157.179 C 130.619 156.857,134.686 154.493,139.235 152.055 C 140.473 151.392,141.688 150.692,141.935 150.500 C 142.183 150.308,143.263 149.698,144.336 149.143 C 147.630 147.441,148.509 146.779,149.435 145.306 C 151.118 142.624,150.374 141.908,147.612 143.553 C 146.612 144.149,145.722 144.636,145.635 144.636 C 145.548 144.636,144.218 145.377,142.680 146.282 C 141.142 147.187,139.299 148.245,138.584 148.632 C 137.869 149.020,136.812 149.607,136.234 149.938 C 135.656 150.269,134.441 150.952,133.533 151.456 C 132.626 151.960,131.140 152.797,130.233 153.316 C 126.570 155.410,126.812 155.357,125.049 154.452 C 122.126 152.953,118.213 150.741,117.860 150.388 C 117.667 150.195,117.408 150.038,117.283 150.038 C 117.159 150.038,115.883 149.362,114.449 148.537 C 113.015 147.712,111.804 147.037,111.758 147.037 C 111.712 147.037,109.898 146.024,107.727 144.786 C 103.546 142.402,103.102 142.244,102.799 143.032 M148.063 145.340 C 147.892 145.787,146.197 146.928,143.436 148.458 C 138.251 151.329,137.486 151.757,134.354 153.533 C 133.073 154.260,131.385 155.205,130.603 155.632 C 127.502 157.326,127.473 157.244,132.033 159.717 C 135.567 161.634,135.930 161.885,135.932 162.416 C 135.935 163.189,135.443 162.974,129.782 159.727 C 126.298 157.728,126.993 157.624,121.038 161.029 C 119.199 162.080,117.545 162.941,117.362 162.941 C 116.733 162.941,117.019 161.784,117.700 161.568 C 118.070 161.451,118.846 161.052,119.426 160.682 C 120.006 160.311,121.457 159.448,122.651 158.763 C 124.878 157.486,125.167 156.747,123.646 156.215 C 123.115 156.030,121.573 155.181,116.879 152.492 C 115.064 151.452,113.342 150.475,113.053 150.319 C 106.627 146.869,103.791 144.936,105.154 144.936 C 105.446 144.936,106.584 145.433,107.682 146.040 C 108.779 146.647,110.015 147.330,110.428 147.558 C 111.225 147.998,112.903 148.948,114.629 149.937 C 115.206 150.269,116.489 150.989,117.479 151.538 C 119.994 152.932,121.042 153.520,123.696 155.026 C 126.395 156.557,126.641 156.585,128.432 155.557 C 130.138 154.577,131.700 153.702,133.983 152.448 C 134.974 151.904,135.919 151.359,136.084 151.238 C 136.249 151.117,136.992 150.685,137.734 150.277 C 139.872 149.104,142.593 147.592,143.736 146.941 C 147.746 144.660,148.420 144.411,148.063 145.340 M253.954 146.587 C 254.911 147.165,255.749 147.637,255.816 147.637 C 255.883 147.637,256.652 148.061,257.526 148.579 C 259.307 149.635,260.119 150.098,262.716 151.538 C 263.706 152.087,264.989 152.802,265.566 153.126 C 272.612 157.086,274.049 157.839,274.555 157.839 C 275.112 157.839,277.166 156.744,285.433 152.037 C 287.365 150.937,289.042 150.038,289.160 150.038 C 289.279 150.038,289.588 149.855,289.849 149.632 C 290.109 149.408,291.343 148.680,292.590 148.012 C 293.837 147.345,295.323 146.515,295.891 146.169 C 297.226 145.355,297.674 145.372,297.674 146.235 C 297.674 147.298,295.987 149.618,294.736 150.273 C 294.124 150.594,293.083 151.163,292.423 151.536 C 291.763 151.910,289.535 153.165,287.472 154.324 C 285.409 155.483,283.046 156.821,282.221 157.296 C 281.395 157.771,280.146 158.452,279.445 158.810 C 277.553 159.773,277.619 159.872,281.770 162.260 C 285.087 164.168,285.430 164.599,284.622 165.833 C 283.988 166.799,283.548 166.696,280.254 164.806 C 278.860 164.006,277.007 162.966,276.137 162.495 L 274.555 161.638 273.437 162.252 C 272.821 162.590,271.508 163.310,270.518 163.851 C 269.527 164.393,268.222 165.147,267.617 165.527 C 265.969 166.561,265.183 166.678,264.554 165.983 C 263.382 164.689,263.885 164.123,268.462 161.587 C 270.187 160.631,271.007 159.947,270.811 159.628 C 270.667 159.396,269.414 158.664,263.995 155.647 C 263.214 155.211,261.490 154.240,260.165 153.488 C 257.804 152.149,255.809 151.031,254.014 150.042 C 252.247 149.070,250.567 145.534,251.873 145.537 C 252.060 145.538,252.996 146.010,253.954 146.587 " class="color74bc9c svgShape"/></svg></svg>